<mxfile host="Electron" agent="Mozilla/5.0 (Windows NT 10.0; Win64; x64) AppleWebKit/537.36 (KHTML, like Gecko) draw.io/24.7.5 Chrome/126.0.6478.183 Electron/31.3.0 Safari/537.36" version="24.7.5" pages="3">
  <diagram name="第 1 页" id="UiAhVbOqcwAZpAf_DpvH">
    <mxGraphModel dx="826" dy="477" grid="1" gridSize="10" guides="1" tooltips="1" connect="1" arrows="1" fold="1" page="1" pageScale="1" pageWidth="827" pageHeight="1169" math="0" shadow="0">
      <root>
        <mxCell id="0" />
        <mxCell id="1" parent="0" />
        <mxCell id="k6dEx_9jUD9Dqyw98f5A-4" style="edgeStyle=orthogonalEdgeStyle;rounded=0;orthogonalLoop=1;jettySize=auto;html=1;fontSize=18;" edge="1" parent="1" source="k6dEx_9jUD9Dqyw98f5A-1" target="k6dEx_9jUD9Dqyw98f5A-2">
          <mxGeometry relative="1" as="geometry" />
        </mxCell>
        <mxCell id="k6dEx_9jUD9Dqyw98f5A-1" value="# 启动 NameServer&#xa;docker run -d --name rmqnamesrv -p 9876:9876 --network rocketmq apache/rocketmq:5.3.1 sh mqnamesrv&#xa;&#xa;&#xa;改为&#xa;docker run -d --name rmqnamesrv -p 0.0.0.0:9876:9876 --network rocketmq apache/rocketmq:5.3.1 sh mqnamesrv&#xa;&#xa;&#xa;# 验证 NameServer 是否启动成功&#xa;docker logs -f rmqnamesrv" style="text;whiteSpace=wrap;fontSize=18;fillColor=#ffe6cc;strokeColor=#d79b00;" vertex="1" parent="1">
          <mxGeometry x="30" y="50" width="550" height="270" as="geometry" />
        </mxCell>
        <mxCell id="k6dEx_9jUD9Dqyw98f5A-5" style="edgeStyle=orthogonalEdgeStyle;rounded=0;orthogonalLoop=1;jettySize=auto;html=1;fontSize=18;" edge="1" parent="1" source="k6dEx_9jUD9Dqyw98f5A-2" target="k6dEx_9jUD9Dqyw98f5A-3">
          <mxGeometry relative="1" as="geometry" />
        </mxCell>
        <UserObject label="# broker内存不足用这个 （2核2gb服务器）&#xa;docker run -d \&#xa;--name rmqbroker \&#xa;--network rocketmq \&#xa;-p 10912:10912 -p 10911:10911 -p 10909:10909 \&#xa;-p 8080:8080 -p 8081:8081 \&#xa;-e &quot;NAMESRV_ADDR=rmqnamesrv:9876&quot; \&#xa;-v ./broker.conf:/home/rocketmq/rocketmq-5.3.1/conf/broker.conf \&#xa;--restart always \&#xa;--memory=1g \&#xa;--memory-swap=2g \&#xa;apache/rocketmq:5.3.1 sh mqbroker --enable-proxy \&#xa;-c /home/rocketmq/rocketmq-5.3.1/conf/broker.conf&#xa;&#xa;&#xa;端口被占了&#xa;docker run -d \&#xa;--name rmqbroker \&#xa;--network rocketmq \&#xa;-p 10912:10912 -p 10911:10911 -p 10909:10909 \&#xa;-p 18080:8080 -p 18081:8081 \&#xa;-e &quot;NAMESRV_ADDR=rmqnamesrv:9876&quot; \&#xa;-v $(pwd)/broker.conf:/home/rocketmq/rocketmq-5.3.1/conf/broker.conf \&#xa;--restart always \&#xa;--memory=1g \&#xa;--memory-swap=2g \&#xa;apache/rocketmq:5.3.1 sh mqbroker --enable-proxy \&#xa;-c /home/rocketmq/rocketmq-5.3.1/conf/broker.conf" link="# broker内存不足用这个 （2核2gb服务器）&#xa;docker run -d \&#xa;--name rmqbroker \&#xa;--network rocketmq \&#xa;-p 10912:10912 -p 10911:10911 -p 10909:10909 \&#xa;-p 8080:8080 -p 8081:8081 \&#xa;-e &quot;NAMESRV_ADDR=rmqnamesrv:9876&quot; \&#xa;-v ./broker.conf:/home/rocketmq/rocketmq-5.3.1/conf/broker.conf \&#xa;--restart always \&#xa;--memory=1g \&#xa;--memory-swap=2g \&#xa;apache/rocketmq:5.3.1 sh mqbroker --enable-proxy \&#xa;-c /home/rocketmq/rocketmq-5.3.1/conf/broker.conf&#xa;&#xa;&#xa;端口被占了&#xa;docker run -d \&#xa;--name rmqbroker \&#xa;--network rocketmq \&#xa;-p 10912:10912 -p 10911:10911 -p 10909:10909 \&#xa;-p 18080:8080 -p 18081:8081 \&#xa;-e &quot;NAMESRV_ADDR=rmqnamesrv:9876&quot; \&#xa;-v $(pwd)/broker.conf:/home/rocketmq/rocketmq-5.3.1/conf/broker.conf \&#xa;--restart always \&#xa;--memory=1g \&#xa;--memory-swap=2g \&#xa;apache/rocketmq:5.3.1 sh mqbroker --enable-proxy \&#xa;-c /home/rocketmq/rocketmq-5.3.1/conf/broker.conf" id="k6dEx_9jUD9Dqyw98f5A-2">
          <mxCell style="text;whiteSpace=wrap;fontSize=18;fillColor=#ffe6cc;strokeColor=#d79b00;" vertex="1" parent="1">
            <mxGeometry x="25" y="450" width="560" height="650" as="geometry" />
          </mxCell>
        </UserObject>
        <UserObject label="docker pull styletang/rocketmq-console-ng&#xa;&#xa;&#xa;docker run -d --restart=always --name rmqadmin -e &quot;JAVA_OPTS=-Drocketmq.namesrv.addr=IP地址:9876 -Dcom.rocketmq.sendMessageWithVIPChannel=false&quot; -p 8080:8080 pangliang/rocketmq-console-ng&#xa;&#xa;&#xa;&#xa;&#xa;用网络：&#xa;docker run -d --restart=always --name rmqadmin \&#xa;  --network rocketmq \&#xa;  -e &quot;JAVA_OPTS=-Drocketmq.namesrv.addr=rmqnamesrv:9876 -Dcom.rocketmq.sendMessageWithVIPChannel=false&quot; \&#xa;  -p 8080:8080 styletang/rocketmq-console-ng" link="docker pull styletang/rocketmq-console-ng&#xa;&#xa;&#xa;docker run -d --restart=always --name rmqadmin -e &quot;JAVA_OPTS=-Drocketmq.namesrv.addr=IP地址:9876 -Dcom.rocketmq.sendMessageWithVIPChannel=false&quot; -p 8080:8080 pangliang/rocketmq-console-ng&#xa;&#xa;&#xa;&#xa;&#xa;用网络：&#xa;docker run -d --restart=always --name rmqadmin \&#xa;  --network rocketmq \&#xa;  -e &quot;JAVA_OPTS=-Drocketmq.namesrv.addr=rmqnamesrv:9876 -Dcom.rocketmq.sendMessageWithVIPChannel=false&quot; \&#xa;  -p 8080:8080 styletang/rocketmq-console-ng" id="k6dEx_9jUD9Dqyw98f5A-3">
          <mxCell style="text;whiteSpace=wrap;fontSize=18;fillColor=#ffe6cc;strokeColor=#d79b00;" vertex="1" parent="1">
            <mxGeometry x="25" y="1200" width="560" height="390" as="geometry" />
          </mxCell>
        </UserObject>
      </root>
    </mxGraphModel>
  </diagram>
  <diagram id="epUjFNs9yyYxSaRNq7-e" name="windows">
    <mxGraphModel dx="780" dy="475" grid="1" gridSize="10" guides="1" tooltips="1" connect="1" arrows="1" fold="1" page="1" pageScale="1" pageWidth="827" pageHeight="1169" math="0" shadow="0">
      <root>
        <mxCell id="0" />
        <mxCell id="1" parent="0" />
        <UserObject label="# 创建 RocketMQ 网络&#xa;docker network create rocketmq&#xa;&#xa;&#xa;# 启动 NameServer&#xa;docker run -d --name rmqnamesrv -p 9876:9876 --network rocketmq --restart always apache/rocketmq:5.3.1 sh mqnamesrv&#xa;&#xa;&#xa;# 启动 Broker&#xa;docker run -d ^&#xa;--name rmqbroker ^&#xa;--network rocketmq ^&#xa;-p 10912:10912 -p 10911:10911 -p 10909:10909 ^&#xa;-p 18080:8080 -p 18081:8081 ^&#xa;-e &quot;NAMESRV_ADDR=rmqnamesrv:9876&quot; ^&#xa;-v %cd%/broker.conf:/home/rocketmq/rocketmq-5.3.1/conf/broker.conf ^&#xa;--restart always ^&#xa;--memory=1g ^&#xa;--memory-swap=2g ^&#xa;apache/rocketmq:5.3.1 sh mqbroker --enable-proxy -c /home/rocketmq/rocketmq-5.3.1/conf/broker.conf&#xa;&#xa;&#xa;# 启动管理控制台&#xa;docker run -d --restart=always --name rmqadmin ^&#xa;  --network rocketmq ^&#xa;  -e &quot;JAVA_OPTS=-Drocketmq.namesrv.addr=rmqnamesrv:9876 -Dcom.rocketmq.sendMessageWithVIPChannel=false&quot; ^&#xa;  -p 8080:8080 styletang/rocketmq-console-ng" link="# 创建 RocketMQ 网络&#xa;docker network create rocketmq&#xa;&#xa;&#xa;# 启动 NameServer&#xa;docker run -d --name rmqnamesrv -p 9876:9876 --network rocketmq --restart always apache/rocketmq:5.3.1 sh mqnamesrv&#xa;&#xa;&#xa;# 启动 Broker&#xa;docker run -d ^&#xa;--name rmqbroker ^&#xa;--network rocketmq ^&#xa;-p 10912:10912 -p 10911:10911 -p 10909:10909 ^&#xa;-p 18080:8080 -p 18081:8081 ^&#xa;-e &quot;NAMESRV_ADDR=rmqnamesrv:9876&quot; ^&#xa;-v %cd%/broker.conf:/home/rocketmq/rocketmq-5.3.1/conf/broker.conf ^&#xa;--restart always ^&#xa;--memory=1g ^&#xa;--memory-swap=2g ^&#xa;apache/rocketmq:5.3.1 sh mqbroker --enable-proxy -c /home/rocketmq/rocketmq-5.3.1/conf/broker.conf&#xa;&#xa;&#xa;# 启动管理控制台&#xa;docker run -d --restart=always --name rmqadmin ^&#xa;  --network rocketmq ^&#xa;  -e &quot;JAVA_OPTS=-Drocketmq.namesrv.addr=rmqnamesrv:9876 -Dcom.rocketmq.sendMessageWithVIPChannel=false&quot; ^&#xa;  -p 8080:8080 styletang/rocketmq-console-ng" id="y56WjPUpc_KmJ5GUBOG9-1">
          <mxCell style="text;whiteSpace=wrap;fontSize=18;" vertex="1" parent="1">
            <mxGeometry x="10" y="20" width="560" height="690" as="geometry" />
          </mxCell>
        </UserObject>
      </root>
    </mxGraphModel>
  </diagram>
  <diagram id="hdLeT09cTMZzC9GNpfW3" name="compose windows">
    <mxGraphModel dx="780" dy="475" grid="1" gridSize="10" guides="1" tooltips="1" connect="1" arrows="1" fold="1" page="1" pageScale="1" pageWidth="827" pageHeight="1169" math="0" shadow="0">
      <root>
        <mxCell id="0" />
        <mxCell id="1" parent="0" />
        <UserObject label="&lt;div style=&quot;color: #141414;background-color: #ffffff;font-family: Consolas, &#39;Courier New&#39;, monospace;font-weight: normal;font-size: 12px;line-height: 16px;white-space: pre;&quot;&gt;&lt;div&gt;&lt;span style=&quot;color: #963296;&quot;&gt;version&lt;/span&gt;&lt;span style=&quot;color: #282828;&quot;&gt;:&lt;/span&gt;&lt;span style=&quot;color: #141414;&quot;&gt; &lt;/span&gt;&lt;span style=&quot;color: #3c5078;&quot;&gt;&#39;&lt;/span&gt;&lt;span style=&quot;color: #3ca087;&quot;&gt;3&lt;/span&gt;&lt;span style=&quot;color: #3c5078;&quot;&gt;&#39;&lt;/span&gt;&lt;/div&gt;&lt;br&gt;&lt;div&gt;&lt;span style=&quot;color: #963296;&quot;&gt;networks&lt;/span&gt;&lt;span style=&quot;color: #282828;&quot;&gt;:&lt;/span&gt;&lt;/div&gt;&lt;div&gt;&lt;span style=&quot;color: #141414;&quot;&gt;&amp;nbsp; &lt;/span&gt;&lt;span style=&quot;color: #963296;&quot;&gt;rocketmq&lt;/span&gt;&lt;span style=&quot;color: #282828;&quot;&gt;:&lt;/span&gt;&lt;/div&gt;&lt;div&gt;&lt;span style=&quot;color: #141414;&quot;&gt;&amp;nbsp; &amp;nbsp; &lt;/span&gt;&lt;span style=&quot;color: #963296;&quot;&gt;name&lt;/span&gt;&lt;span style=&quot;color: #282828;&quot;&gt;:&lt;/span&gt;&lt;span style=&quot;color: #141414;&quot;&gt; &lt;/span&gt;&lt;span style=&quot;color: #3ca087;&quot;&gt;rocketmq&lt;/span&gt;&lt;/div&gt;&lt;br&gt;&lt;div&gt;&lt;span style=&quot;color: #963296;&quot;&gt;services&lt;/span&gt;&lt;span style=&quot;color: #282828;&quot;&gt;:&lt;/span&gt;&lt;/div&gt;&lt;div&gt;&lt;span style=&quot;color: #141414;&quot;&gt;&amp;nbsp; &lt;/span&gt;&lt;span style=&quot;color: #963296;&quot;&gt;rmqnamesrv&lt;/span&gt;&lt;span style=&quot;color: #282828;&quot;&gt;:&lt;/span&gt;&lt;/div&gt;&lt;div&gt;&lt;span style=&quot;color: #141414;&quot;&gt;&amp;nbsp; &amp;nbsp; &lt;/span&gt;&lt;span style=&quot;color: #963296;&quot;&gt;image&lt;/span&gt;&lt;span style=&quot;color: #282828;&quot;&gt;:&lt;/span&gt;&lt;span style=&quot;color: #141414;&quot;&gt; &lt;/span&gt;&lt;span style=&quot;color: #3ca087;&quot;&gt;apache/rocketmq:5.3.1&lt;/span&gt;&lt;/div&gt;&lt;div&gt;&lt;span style=&quot;color: #141414;&quot;&gt;&amp;nbsp; &amp;nbsp; &lt;/span&gt;&lt;span style=&quot;color: #963296;&quot;&gt;container_name&lt;/span&gt;&lt;span style=&quot;color: #282828;&quot;&gt;:&lt;/span&gt;&lt;span style=&quot;color: #141414;&quot;&gt; &lt;/span&gt;&lt;span style=&quot;color: #3ca087;&quot;&gt;rmqnamesrv&lt;/span&gt;&lt;/div&gt;&lt;div&gt;&lt;span style=&quot;color: #141414;&quot;&gt;&amp;nbsp; &amp;nbsp; &lt;/span&gt;&lt;span style=&quot;color: #963296;&quot;&gt;ports&lt;/span&gt;&lt;span style=&quot;color: #282828;&quot;&gt;:&lt;/span&gt;&lt;/div&gt;&lt;div&gt;&lt;span style=&quot;color: #141414;&quot;&gt;&amp;nbsp; &amp;nbsp; &amp;nbsp; &lt;/span&gt;&lt;span style=&quot;color: #3c5078;&quot;&gt;-&lt;/span&gt;&lt;span style=&quot;color: #141414;&quot;&gt; &lt;/span&gt;&lt;span style=&quot;color: #3ca087;&quot;&gt;9876:9876&lt;/span&gt;&lt;/div&gt;&lt;div&gt;&lt;span style=&quot;color: #141414;&quot;&gt;&amp;nbsp; &amp;nbsp; &lt;/span&gt;&lt;span style=&quot;color: #963296;&quot;&gt;networks&lt;/span&gt;&lt;span style=&quot;color: #282828;&quot;&gt;:&lt;/span&gt;&lt;/div&gt;&lt;div&gt;&lt;span style=&quot;color: #141414;&quot;&gt;&amp;nbsp; &amp;nbsp; &amp;nbsp; &lt;/span&gt;&lt;span style=&quot;color: #3c5078;&quot;&gt;-&lt;/span&gt;&lt;span style=&quot;color: #141414;&quot;&gt; &lt;/span&gt;&lt;span style=&quot;color: #3ca087;&quot;&gt;rocketmq&lt;/span&gt;&lt;/div&gt;&lt;div&gt;&lt;span style=&quot;color: #141414;&quot;&gt;&amp;nbsp; &amp;nbsp; &lt;/span&gt;&lt;span style=&quot;color: #963296;&quot;&gt;command&lt;/span&gt;&lt;span style=&quot;color: #282828;&quot;&gt;:&lt;/span&gt;&lt;span style=&quot;color: #141414;&quot;&gt; &lt;/span&gt;&lt;span style=&quot;color: #3ca087;&quot;&gt;sh mqnamesrv&lt;/span&gt;&lt;/div&gt;&lt;div&gt;&lt;span style=&quot;color: #141414;&quot;&gt;&amp;nbsp; &amp;nbsp; &lt;/span&gt;&lt;span style=&quot;color: #963296;&quot;&gt;restart&lt;/span&gt;&lt;span style=&quot;color: #282828;&quot;&gt;:&lt;/span&gt;&lt;span style=&quot;color: #141414;&quot;&gt; &lt;/span&gt;&lt;span style=&quot;color: #3ca087;&quot;&gt;always&lt;/span&gt;&lt;/div&gt;&lt;br&gt;&lt;div&gt;&lt;span style=&quot;color: #141414;&quot;&gt;&amp;nbsp; &lt;/span&gt;&lt;span style=&quot;color: #963296;&quot;&gt;rmqbroker&lt;/span&gt;&lt;span style=&quot;color: #282828;&quot;&gt;:&lt;/span&gt;&lt;/div&gt;&lt;div&gt;&lt;span style=&quot;color: #141414;&quot;&gt;&amp;nbsp; &amp;nbsp; &lt;/span&gt;&lt;span style=&quot;color: #963296;&quot;&gt;image&lt;/span&gt;&lt;span style=&quot;color: #282828;&quot;&gt;:&lt;/span&gt;&lt;span style=&quot;color: #141414;&quot;&gt; &lt;/span&gt;&lt;span style=&quot;color: #3ca087;&quot;&gt;apache/rocketmq:5.3.1&lt;/span&gt;&lt;/div&gt;&lt;div&gt;&lt;span style=&quot;color: #141414;&quot;&gt;&amp;nbsp; &amp;nbsp; &lt;/span&gt;&lt;span style=&quot;color: #963296;&quot;&gt;container_name&lt;/span&gt;&lt;span style=&quot;color: #282828;&quot;&gt;:&lt;/span&gt;&lt;span style=&quot;color: #141414;&quot;&gt; &lt;/span&gt;&lt;span style=&quot;color: #3ca087;&quot;&gt;rmqbroker&lt;/span&gt;&lt;/div&gt;&lt;div&gt;&lt;span style=&quot;color: #141414;&quot;&gt;&amp;nbsp; &amp;nbsp; &lt;/span&gt;&lt;span style=&quot;color: #963296;&quot;&gt;ports&lt;/span&gt;&lt;span style=&quot;color: #282828;&quot;&gt;:&lt;/span&gt;&lt;/div&gt;&lt;div&gt;&lt;span style=&quot;color: #141414;&quot;&gt;&amp;nbsp; &amp;nbsp; &amp;nbsp; &lt;/span&gt;&lt;span style=&quot;color: #3c5078;&quot;&gt;-&lt;/span&gt;&lt;span style=&quot;color: #141414;&quot;&gt; &lt;/span&gt;&lt;span style=&quot;color: #3ca087;&quot;&gt;10912:10912&lt;/span&gt;&lt;/div&gt;&lt;div&gt;&lt;span style=&quot;color: #141414;&quot;&gt;&amp;nbsp; &amp;nbsp; &amp;nbsp; &lt;/span&gt;&lt;span style=&quot;color: #3c5078;&quot;&gt;-&lt;/span&gt;&lt;span style=&quot;color: #141414;&quot;&gt; &lt;/span&gt;&lt;span style=&quot;color: #3ca087;&quot;&gt;10911:10911&lt;/span&gt;&lt;/div&gt;&lt;div&gt;&lt;span style=&quot;color: #141414;&quot;&gt;&amp;nbsp; &amp;nbsp; &amp;nbsp; &lt;/span&gt;&lt;span style=&quot;color: #3c5078;&quot;&gt;-&lt;/span&gt;&lt;span style=&quot;color: #141414;&quot;&gt; &lt;/span&gt;&lt;span style=&quot;color: #3ca087;&quot;&gt;10909:10909&lt;/span&gt;&lt;/div&gt;&lt;div&gt;&lt;span style=&quot;color: #141414;&quot;&gt;&amp;nbsp; &amp;nbsp; &amp;nbsp; &lt;/span&gt;&lt;span style=&quot;color: #3c5078;&quot;&gt;-&lt;/span&gt;&lt;span style=&quot;color: #141414;&quot;&gt; &lt;/span&gt;&lt;span style=&quot;color: #3ca087;&quot;&gt;18080:8080&lt;/span&gt;&lt;/div&gt;&lt;div&gt;&lt;span style=&quot;color: #141414;&quot;&gt;&amp;nbsp; &amp;nbsp; &amp;nbsp; &lt;/span&gt;&lt;span style=&quot;color: #3c5078;&quot;&gt;-&lt;/span&gt;&lt;span style=&quot;color: #141414;&quot;&gt; &lt;/span&gt;&lt;span style=&quot;color: #3ca087;&quot;&gt;18081:8081&lt;/span&gt;&lt;/div&gt;&lt;div&gt;&lt;span style=&quot;color: #141414;&quot;&gt;&amp;nbsp; &amp;nbsp; &lt;/span&gt;&lt;span style=&quot;color: #963296;&quot;&gt;environment&lt;/span&gt;&lt;span style=&quot;color: #282828;&quot;&gt;:&lt;/span&gt;&lt;/div&gt;&lt;div&gt;&lt;span style=&quot;color: #141414;&quot;&gt;&amp;nbsp; &amp;nbsp; &amp;nbsp; &lt;/span&gt;&lt;span style=&quot;color: #3c5078;&quot;&gt;-&lt;/span&gt;&lt;span style=&quot;color: #141414;&quot;&gt; &lt;/span&gt;&lt;span style=&quot;color: #3ca087;&quot;&gt;NAMESRV_ADDR=rmqnamesrv:9876&lt;/span&gt;&lt;/div&gt;&lt;div&gt;&lt;span style=&quot;color: #141414;&quot;&gt;&amp;nbsp; &amp;nbsp; &lt;/span&gt;&lt;span style=&quot;color: #963296;&quot;&gt;volumes&lt;/span&gt;&lt;span style=&quot;color: #282828;&quot;&gt;:&lt;/span&gt;&lt;/div&gt;&lt;div&gt;&lt;span style=&quot;color: #141414;&quot;&gt;&amp;nbsp; &amp;nbsp; &amp;nbsp; &lt;/span&gt;&lt;span style=&quot;color: #3c5078;&quot;&gt;-&lt;/span&gt;&lt;span style=&quot;color: #141414;&quot;&gt; &lt;/span&gt;&lt;span style=&quot;color: #3ca087;&quot;&gt;./broker.conf:/home/rocketmq/rocketmq-5.3.1/conf/broker.conf&lt;/span&gt;&lt;/div&gt;&lt;div&gt;&lt;span style=&quot;color: #141414;&quot;&gt;&amp;nbsp; &amp;nbsp; &lt;/span&gt;&lt;span style=&quot;color: #963296;&quot;&gt;networks&lt;/span&gt;&lt;span style=&quot;color: #282828;&quot;&gt;:&lt;/span&gt;&lt;/div&gt;&lt;div&gt;&lt;span style=&quot;color: #141414;&quot;&gt;&amp;nbsp; &amp;nbsp; &amp;nbsp; &lt;/span&gt;&lt;span style=&quot;color: #3c5078;&quot;&gt;-&lt;/span&gt;&lt;span style=&quot;color: #141414;&quot;&gt; &lt;/span&gt;&lt;span style=&quot;color: #3ca087;&quot;&gt;rocketmq&lt;/span&gt;&lt;/div&gt;&lt;div&gt;&lt;span style=&quot;color: #141414;&quot;&gt;&amp;nbsp; &amp;nbsp; &lt;/span&gt;&lt;span style=&quot;color: #963296;&quot;&gt;command&lt;/span&gt;&lt;span style=&quot;color: #282828;&quot;&gt;:&lt;/span&gt;&lt;span style=&quot;color: #141414;&quot;&gt; &lt;/span&gt;&lt;span style=&quot;color: #3ca087;&quot;&gt;sh mqbroker --enable-proxy -c /home/rocketmq/rocketmq-5.3.1/conf/broker.conf&lt;/span&gt;&lt;/div&gt;&lt;div&gt;&lt;span style=&quot;color: #141414;&quot;&gt;&amp;nbsp; &amp;nbsp; &lt;/span&gt;&lt;span style=&quot;color: #963296;&quot;&gt;depends_on&lt;/span&gt;&lt;span style=&quot;color: #282828;&quot;&gt;:&lt;/span&gt;&lt;/div&gt;&lt;div&gt;&lt;span style=&quot;color: #141414;&quot;&gt;&amp;nbsp; &amp;nbsp; &amp;nbsp; &lt;/span&gt;&lt;span style=&quot;color: #3c5078;&quot;&gt;-&lt;/span&gt;&lt;span style=&quot;color: #141414;&quot;&gt; &lt;/span&gt;&lt;span style=&quot;color: #3ca087;&quot;&gt;rmqnamesrv&lt;/span&gt;&lt;/div&gt;&lt;div&gt;&lt;span style=&quot;color: #141414;&quot;&gt;&amp;nbsp; &amp;nbsp; &lt;/span&gt;&lt;span style=&quot;color: #963296;&quot;&gt;restart&lt;/span&gt;&lt;span style=&quot;color: #282828;&quot;&gt;:&lt;/span&gt;&lt;span style=&quot;color: #141414;&quot;&gt; &lt;/span&gt;&lt;span style=&quot;color: #3ca087;&quot;&gt;always&lt;/span&gt;&lt;/div&gt;&lt;div&gt;&lt;span style=&quot;color: #141414;&quot;&gt;&amp;nbsp; &amp;nbsp; &lt;/span&gt;&lt;span style=&quot;color: #963296;&quot;&gt;deploy&lt;/span&gt;&lt;span style=&quot;color: #282828;&quot;&gt;:&lt;/span&gt;&lt;/div&gt;&lt;div&gt;&lt;span style=&quot;color: #141414;&quot;&gt;&amp;nbsp; &amp;nbsp; &amp;nbsp; &lt;/span&gt;&lt;span style=&quot;color: #963296;&quot;&gt;resources&lt;/span&gt;&lt;span style=&quot;color: #282828;&quot;&gt;:&lt;/span&gt;&lt;/div&gt;&lt;div&gt;&lt;span style=&quot;color: #141414;&quot;&gt;&amp;nbsp; &amp;nbsp; &amp;nbsp; &amp;nbsp; &lt;/span&gt;&lt;span style=&quot;color: #963296;&quot;&gt;limits&lt;/span&gt;&lt;span style=&quot;color: #282828;&quot;&gt;:&lt;/span&gt;&lt;/div&gt;&lt;div&gt;&lt;span style=&quot;color: #141414;&quot;&gt;&amp;nbsp; &amp;nbsp; &amp;nbsp; &amp;nbsp; &amp;nbsp; &lt;/span&gt;&lt;span style=&quot;color: #963296;&quot;&gt;memory&lt;/span&gt;&lt;span style=&quot;color: #282828;&quot;&gt;:&lt;/span&gt;&lt;span style=&quot;color: #141414;&quot;&gt; &lt;/span&gt;&lt;span style=&quot;color: #3ca087;&quot;&gt;1G&lt;/span&gt;&lt;/div&gt;&lt;div&gt;&lt;span style=&quot;color: #141414;&quot;&gt;&amp;nbsp; &amp;nbsp; &amp;nbsp; &amp;nbsp; &lt;/span&gt;&lt;span style=&quot;color: #963296;&quot;&gt;reservations&lt;/span&gt;&lt;span style=&quot;color: #282828;&quot;&gt;:&lt;/span&gt;&lt;/div&gt;&lt;div&gt;&lt;span style=&quot;color: #141414;&quot;&gt;&amp;nbsp; &amp;nbsp; &amp;nbsp; &amp;nbsp; &amp;nbsp; &lt;/span&gt;&lt;span style=&quot;color: #963296;&quot;&gt;memory&lt;/span&gt;&lt;span style=&quot;color: #282828;&quot;&gt;:&lt;/span&gt;&lt;span style=&quot;color: #141414;&quot;&gt; &lt;/span&gt;&lt;span style=&quot;color: #3ca087;&quot;&gt;1G&lt;/span&gt;&lt;/div&gt;&lt;br&gt;&lt;div&gt;&lt;span style=&quot;color: #141414;&quot;&gt;&amp;nbsp; &lt;/span&gt;&lt;span style=&quot;color: #963296;&quot;&gt;rmqadmin&lt;/span&gt;&lt;span style=&quot;color: #282828;&quot;&gt;:&lt;/span&gt;&lt;/div&gt;&lt;div&gt;&lt;span style=&quot;color: #141414;&quot;&gt;&amp;nbsp; &amp;nbsp; &lt;/span&gt;&lt;span style=&quot;color: #963296;&quot;&gt;image&lt;/span&gt;&lt;span style=&quot;color: #282828;&quot;&gt;:&lt;/span&gt;&lt;span style=&quot;color: #141414;&quot;&gt; &lt;/span&gt;&lt;span style=&quot;color: #3ca087;&quot;&gt;styletang/rocketmq-console-ng&lt;/span&gt;&lt;/div&gt;&lt;div&gt;&lt;span style=&quot;color: #141414;&quot;&gt;&amp;nbsp; &amp;nbsp; &lt;/span&gt;&lt;span style=&quot;color: #963296;&quot;&gt;container_name&lt;/span&gt;&lt;span style=&quot;color: #282828;&quot;&gt;:&lt;/span&gt;&lt;span style=&quot;color: #141414;&quot;&gt; &lt;/span&gt;&lt;span style=&quot;color: #3ca087;&quot;&gt;rmqadmin&lt;/span&gt;&lt;/div&gt;&lt;div&gt;&lt;span style=&quot;color: #141414;&quot;&gt;&amp;nbsp; &amp;nbsp; &lt;/span&gt;&lt;span style=&quot;color: #963296;&quot;&gt;ports&lt;/span&gt;&lt;span style=&quot;color: #282828;&quot;&gt;:&lt;/span&gt;&lt;/div&gt;&lt;div&gt;&lt;span style=&quot;color: #141414;&quot;&gt;&amp;nbsp; &amp;nbsp; &amp;nbsp; &lt;/span&gt;&lt;span style=&quot;color: #3c5078;&quot;&gt;-&lt;/span&gt;&lt;span style=&quot;color: #141414;&quot;&gt; &lt;/span&gt;&lt;span style=&quot;color: #3ca087;&quot;&gt;8089:8080&lt;/span&gt;&lt;/div&gt;&lt;div&gt;&lt;span style=&quot;color: #141414;&quot;&gt;&amp;nbsp; &amp;nbsp; &lt;/span&gt;&lt;span style=&quot;color: #963296;&quot;&gt;environment&lt;/span&gt;&lt;span style=&quot;color: #282828;&quot;&gt;:&lt;/span&gt;&lt;/div&gt;&lt;div&gt;&lt;span style=&quot;color: #141414;&quot;&gt;&amp;nbsp; &amp;nbsp; &amp;nbsp; &lt;/span&gt;&lt;span style=&quot;color: #3c5078;&quot;&gt;-&lt;/span&gt;&lt;span style=&quot;color: #141414;&quot;&gt; &lt;/span&gt;&lt;span style=&quot;color: #3ca087;&quot;&gt;JAVA_OPTS=-Drocketmq.namesrv.addr=rmqnamesrv:9876 -Dcom.rocketmq.sendMessageWithVIPChannel=false&lt;/span&gt;&lt;/div&gt;&lt;div&gt;&lt;span style=&quot;color: #141414;&quot;&gt;&amp;nbsp; &amp;nbsp; &lt;/span&gt;&lt;span style=&quot;color: #963296;&quot;&gt;networks&lt;/span&gt;&lt;span style=&quot;color: #282828;&quot;&gt;:&lt;/span&gt;&lt;/div&gt;&lt;div&gt;&lt;span style=&quot;color: #141414;&quot;&gt;&amp;nbsp; &amp;nbsp; &amp;nbsp; &lt;/span&gt;&lt;span style=&quot;color: #3c5078;&quot;&gt;-&lt;/span&gt;&lt;span style=&quot;color: #141414;&quot;&gt; &lt;/span&gt;&lt;span style=&quot;color: #3ca087;&quot;&gt;rocketmq&lt;/span&gt;&lt;/div&gt;&lt;div&gt;&lt;span style=&quot;color: #141414;&quot;&gt;&amp;nbsp; &amp;nbsp; &lt;/span&gt;&lt;span style=&quot;color: #963296;&quot;&gt;depends_on&lt;/span&gt;&lt;span style=&quot;color: #282828;&quot;&gt;:&lt;/span&gt;&lt;/div&gt;&lt;div&gt;&lt;span style=&quot;color: #141414;&quot;&gt;&amp;nbsp; &amp;nbsp; &amp;nbsp; &lt;/span&gt;&lt;span style=&quot;color: #3c5078;&quot;&gt;-&lt;/span&gt;&lt;span style=&quot;color: #141414;&quot;&gt; &lt;/span&gt;&lt;span style=&quot;color: #3ca087;&quot;&gt;rmqnamesrv&lt;/span&gt;&lt;/div&gt;&lt;div&gt;&lt;span style=&quot;color: #141414;&quot;&gt;&amp;nbsp; &amp;nbsp; &lt;/span&gt;&lt;span style=&quot;color: #963296;&quot;&gt;restart&lt;/span&gt;&lt;span style=&quot;color: #282828;&quot;&gt;:&lt;/span&gt;&lt;span style=&quot;color: #141414;&quot;&gt; &lt;/span&gt;&lt;span style=&quot;color: #3ca087;&quot;&gt;always&lt;/span&gt;&lt;/div&gt;&lt;/div&gt;" link="&lt;div style=&quot;color: #141414;background-color: #ffffff;font-family: Consolas, &#39;Courier New&#39;, monospace;font-weight: normal;font-size: 12px;line-height: 16px;white-space: pre;&quot;&gt;&lt;div&gt;&lt;span style=&quot;color: #963296;&quot;&gt;version&lt;/span&gt;&lt;span style=&quot;color: #282828;&quot;&gt;:&lt;/span&gt;&lt;span style=&quot;color: #141414;&quot;&gt; &lt;/span&gt;&lt;span style=&quot;color: #3c5078;&quot;&gt;&#39;&lt;/span&gt;&lt;span style=&quot;color: #3ca087;&quot;&gt;3&lt;/span&gt;&lt;span style=&quot;color: #3c5078;&quot;&gt;&#39;&lt;/span&gt;&lt;/div&gt;&lt;br&gt;&lt;div&gt;&lt;span style=&quot;color: #963296;&quot;&gt;networks&lt;/span&gt;&lt;span style=&quot;color: #282828;&quot;&gt;:&lt;/span&gt;&lt;/div&gt;&lt;div&gt;&lt;span style=&quot;color: #141414;&quot;&gt;&amp;nbsp; &lt;/span&gt;&lt;span style=&quot;color: #963296;&quot;&gt;rocketmq&lt;/span&gt;&lt;span style=&quot;color: #282828;&quot;&gt;:&lt;/span&gt;&lt;/div&gt;&lt;div&gt;&lt;span style=&quot;color: #141414;&quot;&gt;&amp;nbsp; &amp;nbsp; &lt;/span&gt;&lt;span style=&quot;color: #963296;&quot;&gt;name&lt;/span&gt;&lt;span style=&quot;color: #282828;&quot;&gt;:&lt;/span&gt;&lt;span style=&quot;color: #141414;&quot;&gt; &lt;/span&gt;&lt;span style=&quot;color: #3ca087;&quot;&gt;rocketmq&lt;/span&gt;&lt;/div&gt;&lt;br&gt;&lt;div&gt;&lt;span style=&quot;color: #963296;&quot;&gt;services&lt;/span&gt;&lt;span style=&quot;color: #282828;&quot;&gt;:&lt;/span&gt;&lt;/div&gt;&lt;div&gt;&lt;span style=&quot;color: #141414;&quot;&gt;&amp;nbsp; &lt;/span&gt;&lt;span style=&quot;color: #963296;&quot;&gt;rmqnamesrv&lt;/span&gt;&lt;span style=&quot;color: #282828;&quot;&gt;:&lt;/span&gt;&lt;/div&gt;&lt;div&gt;&lt;span style=&quot;color: #141414;&quot;&gt;&amp;nbsp; &amp;nbsp; &lt;/span&gt;&lt;span style=&quot;color: #963296;&quot;&gt;image&lt;/span&gt;&lt;span style=&quot;color: #282828;&quot;&gt;:&lt;/span&gt;&lt;span style=&quot;color: #141414;&quot;&gt; &lt;/span&gt;&lt;span style=&quot;color: #3ca087;&quot;&gt;apache/rocketmq:5.3.1&lt;/span&gt;&lt;/div&gt;&lt;div&gt;&lt;span style=&quot;color: #141414;&quot;&gt;&amp;nbsp; &amp;nbsp; &lt;/span&gt;&lt;span style=&quot;color: #963296;&quot;&gt;container_name&lt;/span&gt;&lt;span style=&quot;color: #282828;&quot;&gt;:&lt;/span&gt;&lt;span style=&quot;color: #141414;&quot;&gt; &lt;/span&gt;&lt;span style=&quot;color: #3ca087;&quot;&gt;rmqnamesrv&lt;/span&gt;&lt;/div&gt;&lt;div&gt;&lt;span style=&quot;color: #141414;&quot;&gt;&amp;nbsp; &amp;nbsp; &lt;/span&gt;&lt;span style=&quot;color: #963296;&quot;&gt;ports&lt;/span&gt;&lt;span style=&quot;color: #282828;&quot;&gt;:&lt;/span&gt;&lt;/div&gt;&lt;div&gt;&lt;span style=&quot;color: #141414;&quot;&gt;&amp;nbsp; &amp;nbsp; &amp;nbsp; &lt;/span&gt;&lt;span style=&quot;color: #3c5078;&quot;&gt;-&lt;/span&gt;&lt;span style=&quot;color: #141414;&quot;&gt; &lt;/span&gt;&lt;span style=&quot;color: #3ca087;&quot;&gt;9876:9876&lt;/span&gt;&lt;/div&gt;&lt;div&gt;&lt;span style=&quot;color: #141414;&quot;&gt;&amp;nbsp; &amp;nbsp; &lt;/span&gt;&lt;span style=&quot;color: #963296;&quot;&gt;networks&lt;/span&gt;&lt;span style=&quot;color: #282828;&quot;&gt;:&lt;/span&gt;&lt;/div&gt;&lt;div&gt;&lt;span style=&quot;color: #141414;&quot;&gt;&amp;nbsp; &amp;nbsp; &amp;nbsp; &lt;/span&gt;&lt;span style=&quot;color: #3c5078;&quot;&gt;-&lt;/span&gt;&lt;span style=&quot;color: #141414;&quot;&gt; &lt;/span&gt;&lt;span style=&quot;color: #3ca087;&quot;&gt;rocketmq&lt;/span&gt;&lt;/div&gt;&lt;div&gt;&lt;span style=&quot;color: #141414;&quot;&gt;&amp;nbsp; &amp;nbsp; &lt;/span&gt;&lt;span style=&quot;color: #963296;&quot;&gt;command&lt;/span&gt;&lt;span style=&quot;color: #282828;&quot;&gt;:&lt;/span&gt;&lt;span style=&quot;color: #141414;&quot;&gt; &lt;/span&gt;&lt;span style=&quot;color: #3ca087;&quot;&gt;sh mqnamesrv&lt;/span&gt;&lt;/div&gt;&lt;div&gt;&lt;span style=&quot;color: #141414;&quot;&gt;&amp;nbsp; &amp;nbsp; &lt;/span&gt;&lt;span style=&quot;color: #963296;&quot;&gt;restart&lt;/span&gt;&lt;span style=&quot;color: #282828;&quot;&gt;:&lt;/span&gt;&lt;span style=&quot;color: #141414;&quot;&gt; &lt;/span&gt;&lt;span style=&quot;color: #3ca087;&quot;&gt;always&lt;/span&gt;&lt;/div&gt;&lt;br&gt;&lt;div&gt;&lt;span style=&quot;color: #141414;&quot;&gt;&amp;nbsp; &lt;/span&gt;&lt;span style=&quot;color: #963296;&quot;&gt;rmqbroker&lt;/span&gt;&lt;span style=&quot;color: #282828;&quot;&gt;:&lt;/span&gt;&lt;/div&gt;&lt;div&gt;&lt;span style=&quot;color: #141414;&quot;&gt;&amp;nbsp; &amp;nbsp; &lt;/span&gt;&lt;span style=&quot;color: #963296;&quot;&gt;image&lt;/span&gt;&lt;span style=&quot;color: #282828;&quot;&gt;:&lt;/span&gt;&lt;span style=&quot;color: #141414;&quot;&gt; &lt;/span&gt;&lt;span style=&quot;color: #3ca087;&quot;&gt;apache/rocketmq:5.3.1&lt;/span&gt;&lt;/div&gt;&lt;div&gt;&lt;span style=&quot;color: #141414;&quot;&gt;&amp;nbsp; &amp;nbsp; &lt;/span&gt;&lt;span style=&quot;color: #963296;&quot;&gt;container_name&lt;/span&gt;&lt;span style=&quot;color: #282828;&quot;&gt;:&lt;/span&gt;&lt;span style=&quot;color: #141414;&quot;&gt; &lt;/span&gt;&lt;span style=&quot;color: #3ca087;&quot;&gt;rmqbroker&lt;/span&gt;&lt;/div&gt;&lt;div&gt;&lt;span style=&quot;color: #141414;&quot;&gt;&amp;nbsp; &amp;nbsp; &lt;/span&gt;&lt;span style=&quot;color: #963296;&quot;&gt;ports&lt;/span&gt;&lt;span style=&quot;color: #282828;&quot;&gt;:&lt;/span&gt;&lt;/div&gt;&lt;div&gt;&lt;span style=&quot;color: #141414;&quot;&gt;&amp;nbsp; &amp;nbsp; &amp;nbsp; &lt;/span&gt;&lt;span style=&quot;color: #3c5078;&quot;&gt;-&lt;/span&gt;&lt;span style=&quot;color: #141414;&quot;&gt; &lt;/span&gt;&lt;span style=&quot;color: #3ca087;&quot;&gt;10912:10912&lt;/span&gt;&lt;/div&gt;&lt;div&gt;&lt;span style=&quot;color: #141414;&quot;&gt;&amp;nbsp; &amp;nbsp; &amp;nbsp; &lt;/span&gt;&lt;span style=&quot;color: #3c5078;&quot;&gt;-&lt;/span&gt;&lt;span style=&quot;color: #141414;&quot;&gt; &lt;/span&gt;&lt;span style=&quot;color: #3ca087;&quot;&gt;10911:10911&lt;/span&gt;&lt;/div&gt;&lt;div&gt;&lt;span style=&quot;color: #141414;&quot;&gt;&amp;nbsp; &amp;nbsp; &amp;nbsp; &lt;/span&gt;&lt;span style=&quot;color: #3c5078;&quot;&gt;-&lt;/span&gt;&lt;span style=&quot;color: #141414;&quot;&gt; &lt;/span&gt;&lt;span style=&quot;color: #3ca087;&quot;&gt;10909:10909&lt;/span&gt;&lt;/div&gt;&lt;div&gt;&lt;span style=&quot;color: #141414;&quot;&gt;&amp;nbsp; &amp;nbsp; &amp;nbsp; &lt;/span&gt;&lt;span style=&quot;color: #3c5078;&quot;&gt;-&lt;/span&gt;&lt;span style=&quot;color: #141414;&quot;&gt; &lt;/span&gt;&lt;span style=&quot;color: #3ca087;&quot;&gt;18080:8080&lt;/span&gt;&lt;/div&gt;&lt;div&gt;&lt;span style=&quot;color: #141414;&quot;&gt;&amp;nbsp; &amp;nbsp; &amp;nbsp; &lt;/span&gt;&lt;span style=&quot;color: #3c5078;&quot;&gt;-&lt;/span&gt;&lt;span style=&quot;color: #141414;&quot;&gt; &lt;/span&gt;&lt;span style=&quot;color: #3ca087;&quot;&gt;18081:8081&lt;/span&gt;&lt;/div&gt;&lt;div&gt;&lt;span style=&quot;color: #141414;&quot;&gt;&amp;nbsp; &amp;nbsp; &lt;/span&gt;&lt;span style=&quot;color: #963296;&quot;&gt;environment&lt;/span&gt;&lt;span style=&quot;color: #282828;&quot;&gt;:&lt;/span&gt;&lt;/div&gt;&lt;div&gt;&lt;span style=&quot;color: #141414;&quot;&gt;&amp;nbsp; &amp;nbsp; &amp;nbsp; &lt;/span&gt;&lt;span style=&quot;color: #3c5078;&quot;&gt;-&lt;/span&gt;&lt;span style=&quot;color: #141414;&quot;&gt; &lt;/span&gt;&lt;span style=&quot;color: #3ca087;&quot;&gt;NAMESRV_ADDR=rmqnamesrv:9876&lt;/span&gt;&lt;/div&gt;&lt;div&gt;&lt;span style=&quot;color: #141414;&quot;&gt;&amp;nbsp; &amp;nbsp; &lt;/span&gt;&lt;span style=&quot;color: #963296;&quot;&gt;volumes&lt;/span&gt;&lt;span style=&quot;color: #282828;&quot;&gt;:&lt;/span&gt;&lt;/div&gt;&lt;div&gt;&lt;span style=&quot;color: #141414;&quot;&gt;&amp;nbsp; &amp;nbsp; &amp;nbsp; &lt;/span&gt;&lt;span style=&quot;color: #3c5078;&quot;&gt;-&lt;/span&gt;&lt;span style=&quot;color: #141414;&quot;&gt; &lt;/span&gt;&lt;span style=&quot;color: #3ca087;&quot;&gt;./broker.conf:/home/rocketmq/rocketmq-5.3.1/conf/broker.conf&lt;/span&gt;&lt;/div&gt;&lt;div&gt;&lt;span style=&quot;color: #141414;&quot;&gt;&amp;nbsp; &amp;nbsp; &lt;/span&gt;&lt;span style=&quot;color: #963296;&quot;&gt;networks&lt;/span&gt;&lt;span style=&quot;color: #282828;&quot;&gt;:&lt;/span&gt;&lt;/div&gt;&lt;div&gt;&lt;span style=&quot;color: #141414;&quot;&gt;&amp;nbsp; &amp;nbsp; &amp;nbsp; &lt;/span&gt;&lt;span style=&quot;color: #3c5078;&quot;&gt;-&lt;/span&gt;&lt;span style=&quot;color: #141414;&quot;&gt; &lt;/span&gt;&lt;span style=&quot;color: #3ca087;&quot;&gt;rocketmq&lt;/span&gt;&lt;/div&gt;&lt;div&gt;&lt;span style=&quot;color: #141414;&quot;&gt;&amp;nbsp; &amp;nbsp; &lt;/span&gt;&lt;span style=&quot;color: #963296;&quot;&gt;command&lt;/span&gt;&lt;span style=&quot;color: #282828;&quot;&gt;:&lt;/span&gt;&lt;span style=&quot;color: #141414;&quot;&gt; &lt;/span&gt;&lt;span style=&quot;color: #3ca087;&quot;&gt;sh mqbroker --enable-proxy -c /home/rocketmq/rocketmq-5.3.1/conf/broker.conf&lt;/span&gt;&lt;/div&gt;&lt;div&gt;&lt;span style=&quot;color: #141414;&quot;&gt;&amp;nbsp; &amp;nbsp; &lt;/span&gt;&lt;span style=&quot;color: #963296;&quot;&gt;depends_on&lt;/span&gt;&lt;span style=&quot;color: #282828;&quot;&gt;:&lt;/span&gt;&lt;/div&gt;&lt;div&gt;&lt;span style=&quot;color: #141414;&quot;&gt;&amp;nbsp; &amp;nbsp; &amp;nbsp; &lt;/span&gt;&lt;span style=&quot;color: #3c5078;&quot;&gt;-&lt;/span&gt;&lt;span style=&quot;color: #141414;&quot;&gt; &lt;/span&gt;&lt;span style=&quot;color: #3ca087;&quot;&gt;rmqnamesrv&lt;/span&gt;&lt;/div&gt;&lt;div&gt;&lt;span style=&quot;color: #141414;&quot;&gt;&amp;nbsp; &amp;nbsp; &lt;/span&gt;&lt;span style=&quot;color: #963296;&quot;&gt;restart&lt;/span&gt;&lt;span style=&quot;color: #282828;&quot;&gt;:&lt;/span&gt;&lt;span style=&quot;color: #141414;&quot;&gt; &lt;/span&gt;&lt;span style=&quot;color: #3ca087;&quot;&gt;always&lt;/span&gt;&lt;/div&gt;&lt;div&gt;&lt;span style=&quot;color: #141414;&quot;&gt;&amp;nbsp; &amp;nbsp; &lt;/span&gt;&lt;span style=&quot;color: #963296;&quot;&gt;deploy&lt;/span&gt;&lt;span style=&quot;color: #282828;&quot;&gt;:&lt;/span&gt;&lt;/div&gt;&lt;div&gt;&lt;span style=&quot;color: #141414;&quot;&gt;&amp;nbsp; &amp;nbsp; &amp;nbsp; &lt;/span&gt;&lt;span style=&quot;color: #963296;&quot;&gt;resources&lt;/span&gt;&lt;span style=&quot;color: #282828;&quot;&gt;:&lt;/span&gt;&lt;/div&gt;&lt;div&gt;&lt;span style=&quot;color: #141414;&quot;&gt;&amp;nbsp; &amp;nbsp; &amp;nbsp; &amp;nbsp; &lt;/span&gt;&lt;span style=&quot;color: #963296;&quot;&gt;limits&lt;/span&gt;&lt;span style=&quot;color: #282828;&quot;&gt;:&lt;/span&gt;&lt;/div&gt;&lt;div&gt;&lt;span style=&quot;color: #141414;&quot;&gt;&amp;nbsp; &amp;nbsp; &amp;nbsp; &amp;nbsp; &amp;nbsp; &lt;/span&gt;&lt;span style=&quot;color: #963296;&quot;&gt;memory&lt;/span&gt;&lt;span style=&quot;color: #282828;&quot;&gt;:&lt;/span&gt;&lt;span style=&quot;color: #141414;&quot;&gt; &lt;/span&gt;&lt;span style=&quot;color: #3ca087;&quot;&gt;1G&lt;/span&gt;&lt;/div&gt;&lt;div&gt;&lt;span style=&quot;color: #141414;&quot;&gt;&amp;nbsp; &amp;nbsp; &amp;nbsp; &amp;nbsp; &lt;/span&gt;&lt;span style=&quot;color: #963296;&quot;&gt;reservations&lt;/span&gt;&lt;span style=&quot;color: #282828;&quot;&gt;:&lt;/span&gt;&lt;/div&gt;&lt;div&gt;&lt;span style=&quot;color: #141414;&quot;&gt;&amp;nbsp; &amp;nbsp; &amp;nbsp; &amp;nbsp; &amp;nbsp; &lt;/span&gt;&lt;span style=&quot;color: #963296;&quot;&gt;memory&lt;/span&gt;&lt;span style=&quot;color: #282828;&quot;&gt;:&lt;/span&gt;&lt;span style=&quot;color: #141414;&quot;&gt; &lt;/span&gt;&lt;span style=&quot;color: #3ca087;&quot;&gt;1G&lt;/span&gt;&lt;/div&gt;&lt;br&gt;&lt;div&gt;&lt;span style=&quot;color: #141414;&quot;&gt;&amp;nbsp; &lt;/span&gt;&lt;span style=&quot;color: #963296;&quot;&gt;rmqadmin&lt;/span&gt;&lt;span style=&quot;color: #282828;&quot;&gt;:&lt;/span&gt;&lt;/div&gt;&lt;div&gt;&lt;span style=&quot;color: #141414;&quot;&gt;&amp;nbsp; &amp;nbsp; &lt;/span&gt;&lt;span style=&quot;color: #963296;&quot;&gt;image&lt;/span&gt;&lt;span style=&quot;color: #282828;&quot;&gt;:&lt;/span&gt;&lt;span style=&quot;color: #141414;&quot;&gt; &lt;/span&gt;&lt;span style=&quot;color: #3ca087;&quot;&gt;styletang/rocketmq-console-ng&lt;/span&gt;&lt;/div&gt;&lt;div&gt;&lt;span style=&quot;color: #141414;&quot;&gt;&amp;nbsp; &amp;nbsp; &lt;/span&gt;&lt;span style=&quot;color: #963296;&quot;&gt;container_name&lt;/span&gt;&lt;span style=&quot;color: #282828;&quot;&gt;:&lt;/span&gt;&lt;span style=&quot;color: #141414;&quot;&gt; &lt;/span&gt;&lt;span style=&quot;color: #3ca087;&quot;&gt;rmqadmin&lt;/span&gt;&lt;/div&gt;&lt;div&gt;&lt;span style=&quot;color: #141414;&quot;&gt;&amp;nbsp; &amp;nbsp; &lt;/span&gt;&lt;span style=&quot;color: #963296;&quot;&gt;ports&lt;/span&gt;&lt;span style=&quot;color: #282828;&quot;&gt;:&lt;/span&gt;&lt;/div&gt;&lt;div&gt;&lt;span style=&quot;color: #141414;&quot;&gt;&amp;nbsp; &amp;nbsp; &amp;nbsp; &lt;/span&gt;&lt;span style=&quot;color: #3c5078;&quot;&gt;-&lt;/span&gt;&lt;span style=&quot;color: #141414;&quot;&gt; &lt;/span&gt;&lt;span style=&quot;color: #3ca087;&quot;&gt;8080:8080&lt;/span&gt;&lt;/div&gt;&lt;div&gt;&lt;span style=&quot;color: #141414;&quot;&gt;&amp;nbsp; &amp;nbsp; &lt;/span&gt;&lt;span style=&quot;color: #963296;&quot;&gt;environment&lt;/span&gt;&lt;span style=&quot;color: #282828;&quot;&gt;:&lt;/span&gt;&lt;/div&gt;&lt;div&gt;&lt;span style=&quot;color: #141414;&quot;&gt;&amp;nbsp; &amp;nbsp; &amp;nbsp; &lt;/span&gt;&lt;span style=&quot;color: #3c5078;&quot;&gt;-&lt;/span&gt;&lt;span style=&quot;color: #141414;&quot;&gt; &lt;/span&gt;&lt;span style=&quot;color: #3ca087;&quot;&gt;JAVA_OPTS=-Drocketmq.namesrv.addr=rmqnamesrv:9876 -Dcom.rocketmq.sendMessageWithVIPChannel=false&lt;/span&gt;&lt;/div&gt;&lt;div&gt;&lt;span style=&quot;color: #141414;&quot;&gt;&amp;nbsp; &amp;nbsp; &lt;/span&gt;&lt;span style=&quot;color: #963296;&quot;&gt;networks&lt;/span&gt;&lt;span style=&quot;color: #282828;&quot;&gt;:&lt;/span&gt;&lt;/div&gt;&lt;div&gt;&lt;span style=&quot;color: #141414;&quot;&gt;&amp;nbsp; &amp;nbsp; &amp;nbsp; &lt;/span&gt;&lt;span style=&quot;color: #3c5078;&quot;&gt;-&lt;/span&gt;&lt;span style=&quot;color: #141414;&quot;&gt; &lt;/span&gt;&lt;span style=&quot;color: #3ca087;&quot;&gt;rocketmq&lt;/span&gt;&lt;/div&gt;&lt;div&gt;&lt;span style=&quot;color: #141414;&quot;&gt;&amp;nbsp; &amp;nbsp; &lt;/span&gt;&lt;span style=&quot;color: #963296;&quot;&gt;depends_on&lt;/span&gt;&lt;span style=&quot;color: #282828;&quot;&gt;:&lt;/span&gt;&lt;/div&gt;&lt;div&gt;&lt;span style=&quot;color: #141414;&quot;&gt;&amp;nbsp; &amp;nbsp; &amp;nbsp; &lt;/span&gt;&lt;span style=&quot;color: #3c5078;&quot;&gt;-&lt;/span&gt;&lt;span style=&quot;color: #141414;&quot;&gt; &lt;/span&gt;&lt;span style=&quot;color: #3ca087;&quot;&gt;rmqnamesrv&lt;/span&gt;&lt;/div&gt;&lt;div&gt;&lt;span style=&quot;color: #141414;&quot;&gt;&amp;nbsp; &amp;nbsp; &lt;/span&gt;&lt;span style=&quot;color: #963296;&quot;&gt;restart&lt;/span&gt;&lt;span style=&quot;color: #282828;&quot;&gt;:&lt;/span&gt;&lt;span style=&quot;color: #141414;&quot;&gt; &lt;/span&gt;&lt;span style=&quot;color: #3ca087;&quot;&gt;always&lt;/span&gt;&lt;/div&gt;&lt;/div&gt;" id="EBt1fWXMSoKTyM_iTpxV-1">
          <mxCell style="text;whiteSpace=wrap;html=1;fontSize=18;" vertex="1" parent="1">
            <mxGeometry x="20" y="250" width="560" height="900" as="geometry" />
          </mxCell>
        </UserObject>
        <mxCell id="71JBsf7jEtWCNdMCcFfH-1" value="&lt;div style=&quot;color: #141414;background-color: #ffffff;font-family: Consolas, &#39;Courier New&#39;, monospace;font-weight: normal;font-size: 12px;line-height: 16px;white-space: pre;&quot;&gt;&lt;div&gt;&lt;span style=&quot;color: rgb(0, 120, 180);&quot;&gt;@&lt;/span&gt;&lt;span style=&quot;color: rgb(240, 90, 0);&quot;&gt;echo&lt;/span&gt; &lt;span style=&quot;color: rgb(0, 120, 200);&quot;&gt;off&lt;/span&gt;&lt;br&gt;&lt;/div&gt;&lt;div&gt;&lt;span style=&quot;color: #f05a00;&quot;&gt;echo&lt;/span&gt;&lt;span style=&quot;color: #141414;&quot;&gt; 正在启动 RocketMQ 服务...&lt;/span&gt;&lt;/div&gt;&lt;div&gt;&lt;span style=&quot;color: #141414;&quot;&gt;docker-compose up -d&lt;/span&gt;&lt;/div&gt;&lt;div&gt;&lt;span style=&quot;color: #f05a00;&quot;&gt;echo&lt;/span&gt;&lt;span style=&quot;color: #141414;&quot;&gt;.&lt;/span&gt;&lt;/div&gt;&lt;div&gt;&lt;span style=&quot;color: #f05a00;&quot;&gt;echo&lt;/span&gt;&lt;span style=&quot;color: #141414;&quot;&gt; RocketMQ 服务已启动！&lt;/span&gt;&lt;/div&gt;&lt;div&gt;&lt;span style=&quot;color: #f05a00;&quot;&gt;echo&lt;/span&gt;&lt;span style=&quot;color: #141414;&quot;&gt; 命名服务: http://localhost:9876&lt;/span&gt;&lt;/div&gt;&lt;div&gt;&lt;span style=&quot;color: #f05a00;&quot;&gt;echo&lt;/span&gt;&lt;span style=&quot;color: #141414;&quot;&gt; 管理控制台: http://localhost:8080&lt;/span&gt;&lt;/div&gt;&lt;div&gt;&lt;span style=&quot;color: #f05a00;&quot;&gt;echo&lt;/span&gt;&lt;span style=&quot;color: #141414;&quot;&gt;.&lt;/span&gt;&lt;/div&gt;&lt;div&gt;&lt;span style=&quot;color: #f05a00;&quot;&gt;pause&lt;/span&gt;&lt;/div&gt;&lt;/div&gt;" style="text;whiteSpace=wrap;html=1;fontSize=18;" vertex="1" parent="1">
          <mxGeometry x="20" y="30" width="280" height="170" as="geometry" />
        </mxCell>
        <mxCell id="71JBsf7jEtWCNdMCcFfH-2" value="&lt;div style=&quot;color: #141414;background-color: #ffffff;font-family: Consolas, &#39;Courier New&#39;, monospace;font-weight: normal;font-size: 12px;line-height: 16px;white-space: pre;&quot;&gt;&lt;div&gt;&lt;span style=&quot;color: #0078b4;&quot;&gt;@&lt;/span&gt;&lt;span style=&quot;color: #f05a00;&quot;&gt;echo&lt;/span&gt;&lt;span style=&quot;color: #141414;&quot;&gt; &lt;/span&gt;&lt;span style=&quot;color: #0078c8;&quot;&gt;off&lt;/span&gt;&lt;/div&gt;&lt;div&gt;&lt;span style=&quot;color: #f05a00;&quot;&gt;echo&lt;/span&gt;&lt;span style=&quot;color: #141414;&quot;&gt; 正在停止 RocketMQ 服务...&lt;/span&gt;&lt;/div&gt;&lt;div&gt;&lt;span style=&quot;color: #141414;&quot;&gt;docker-compose down&lt;/span&gt;&lt;/div&gt;&lt;div&gt;&lt;span style=&quot;color: #f05a00;&quot;&gt;echo&lt;/span&gt;&lt;span style=&quot;color: #141414;&quot;&gt;.&lt;/span&gt;&lt;/div&gt;&lt;div&gt;&lt;span style=&quot;color: #f05a00;&quot;&gt;echo&lt;/span&gt;&lt;span style=&quot;color: #141414;&quot;&gt; RocketMQ 服务已停止！&lt;/span&gt;&lt;/div&gt;&lt;div&gt;&lt;span style=&quot;color: #f05a00;&quot;&gt;echo&lt;/span&gt;&lt;span style=&quot;color: #141414;&quot;&gt;.&lt;/span&gt;&lt;/div&gt;&lt;div&gt;&lt;span style=&quot;color: #f05a00;&quot;&gt;pause&lt;/span&gt;&lt;/div&gt;&lt;/div&gt;" style="text;whiteSpace=wrap;html=1;fontSize=18;" vertex="1" parent="1">
          <mxGeometry x="330" y="40" width="230" height="140" as="geometry" />
        </mxCell>
        <mxCell id="71JBsf7jEtWCNdMCcFfH-3" value="docker-compose.yml" style="text;html=1;align=center;verticalAlign=middle;resizable=0;points=[];autosize=1;strokeColor=none;fillColor=none;fontSize=18;" vertex="1" parent="1">
          <mxGeometry y="210" width="190" height="40" as="geometry" />
        </mxCell>
        <mxCell id="71JBsf7jEtWCNdMCcFfH-4" value="bat" style="text;html=1;align=center;verticalAlign=middle;resizable=0;points=[];autosize=1;strokeColor=none;fillColor=none;fontSize=18;" vertex="1" parent="1">
          <mxGeometry x="10" width="50" height="40" as="geometry" />
        </mxCell>
      </root>
    </mxGraphModel>
  </diagram>
</mxfile>
